<?xml version="1.0" encoding="UTF-8"?>
<svg id="Layer_1" xmlns="http://www.w3.org/2000/svg" version="1.1" viewBox="0 0 1440 1440">
  <!-- Generator: Adobe Illustrator 30.0.0, SVG Export Plug-In . SVG Version: 2.1.1 Build 123)  -->
  <defs>
    <style>
      .st0 {
        stroke: #d3af37;
        stroke-width: 136px;
      }

      .st1 {
        fill: #d3af37;
      }
    </style>
  </defs>
  <g id="Layer_11" data-name="Layer_1">
    <path class="st0" d="M1368.1,720c0,357.94-290.16,648.1-648.1,648.1S71.9,1077.94,71.9,720,362.06,71.9,720,71.9s648.1,290.16,648.1,648.1Z"/>
  </g>
  <g>
    <path class="st1" d="M825.02,912.72l-177.3,177.3c-82.67,82.67-216.28,83.35-299.77,2.03-81.32-83.5-80.64-217.11,2.03-299.78l166.82-166.82c11.6-11.6,24.21-21.59,37.54-29.96,52.79-33.15,116.92-40.98,175.07-23.48,14.1,4.24,27.84,9.97,40.98,17.19,16.51,9.06,32.07,20.47,46.19,34.23.98,1.01,1.95,2.02,2.91,3.05,20.03,21.37,19.38,54.8-1.57,75.27l-3.63,3.54c-21.59,21.1-56.28,20.23-76.9-1.82-.14-.15-.28-.29-.41-.44.7.66,1.39,1.33,2.07,2.01l-4.08-4.08c.68.68,1.36,1.37,2.01,2.07-14.64-13.85-32.73-22.83-52.29-26.13-5.56-.94-11.23-1.41-16.98-1.41-2.22,0-4.44.07-6.64.22-7.7.5-15.23,1.86-22.49,4.03-15.78,4.73-30.23,13.32-42.21,25.3l-166.82,166.82c-17.48,17.48-27.76,40.24-29.33,64.7-.15,2.2-.22,4.42-.22,6.64,0,25.98,9.76,50.46,27.54,69.26-.7-.66-1.39-1.33-2.07-2.01l4.08,4.08c-.68-.68-1.35-1.37-2.01-2.07,18.8,17.78,43.28,27.53,69.26,27.53,2.23,0,4.44-.07,6.64-.21,24.45-1.58,47.22-11.85,64.7-29.33l110.16-110.16c.15.06.31.12.46.18,30.36,11.97,62.35,17.94,95.11,17.73,17.33-.11,34.42-1.94,51.15-5.47Z"/>
    <path class="st1" d="M1090.02,647.73l-166.82,166.82c-11.6,11.6-24.21,21.6-37.54,29.97-52.78,33.15-116.92,40.98-175.06,23.48-14.1-4.24-27.84-9.97-40.99-17.19-16.51-9.06-32.06-20.47-46.18-34.22-.98-1.01-1.95-2.02-2.91-3.05-20.03-21.38-19.38-54.81,1.57-75.28l3.62-3.54c21.6-21.1,56.28-20.23,76.9,1.83.14.15.28.29.41.44-.7-.66-1.39-1.33-2.07-2.01l4.08,4.08c-.68-.68-1.35-1.37-2.01-2.07,14.64,13.85,32.73,22.83,52.29,26.12,5.55.94,11.22,1.41,16.97,1.41,2.23,0,4.44-.07,6.64-.21,7.7-.5,15.24-1.86,22.49-4.04,15.78-4.73,30.23-13.32,42.21-25.3l166.82-166.82c17.48-17.48,27.76-40.25,29.33-64.7.14-2.2.22-4.42.21-6.64,0-25.98-9.75-50.46-27.53-69.26.7.66,1.39,1.33,2.07,2.01l-4.08-4.08c.68.68,1.36,1.37,2.01,2.07-18.8-17.78-43.28-27.54-69.27-27.54-2.22,0-4.44.07-6.64.22-24.45,1.58-47.21,11.85-64.7,29.33l-110.16,110.16c-.15-.06-.31-.12-.46-.18-30.36-11.97-62.36-17.94-95.11-17.74-17.33.11-34.42,1.94-51.16,5.48l177.3-177.3c82.67-82.67,216.28-83.35,299.78-2.03,81.32,83.5,80.64,217.11-2.03,299.77Z"/>
  </g>
</svg>