<?xml version="1.0" encoding="UTF-8"?>
<svg id="Layer_1" xmlns="http://www.w3.org/2000/svg" xmlns:xlink="http://www.w3.org/1999/xlink" version="1.1" viewBox="0 0 1440 1440">
  <!-- Generator: Adobe Illustrator 30.0.0, SVG Export Plug-In . SVG Version: 2.1.1 Build 123)  -->
  <defs>
    <style>
      .st0 {
        fill: url(#linear-gradient2);
      }

      .st1 {
        fill: url(#linear-gradient3);
      }

      .st2 {
        fill: url(#linear-gradient4);
      }

      .st3 {
        stroke: url(#linear-gradient);
        stroke-width: 76px;
      }

      .st3, .st4 {
        fill: none;
      }

      .st4 {
        stroke: url(#linear-gradient1);
        stroke-miterlimit: 3.68;
        stroke-width: 83px;
      }
    </style>
    <linearGradient id="linear-gradient" x1="6.44" y1="720" x2="1433.56" y2="720" gradientUnits="userSpaceOnUse">
      <stop offset=".06" stop-color="#e4b122"/>
      <stop offset=".22" stop-color="#e4b122"/>
      <stop offset=".53" stop-color="#fdf391"/>
      <stop offset=".55" stop-color="#fbeb7c"/>
      <stop offset=".6" stop-color="#fae05f"/>
      <stop offset=".64" stop-color="#f8d848"/>
      <stop offset=".7" stop-color="#f7d238"/>
      <stop offset=".75" stop-color="#f7cf2f"/>
      <stop offset=".83" stop-color="#f7ce2c"/>
    </linearGradient>
    <linearGradient id="linear-gradient1" x1="106.72" y1="1214.34" x2="1529.98" y2="-208.92" gradientTransform="translate(-30.83 1183.63) scale(.92 -.92)" gradientUnits="userSpaceOnUse">
      <stop offset="0" stop-color="#000"/>
      <stop offset=".01" stop-color="#ebaf1f"/>
      <stop offset="1" stop-color="#fded83"/>
    </linearGradient>
    <linearGradient id="linear-gradient2" x1="260.4" y1="844.71" x2="1203" y2="844.71" xlink:href="#linear-gradient"/>
    <linearGradient id="linear-gradient3" x1="260.4" y1="612.51" x2="1203" y2="612.51" xlink:href="#linear-gradient"/>
    <linearGradient id="linear-gradient4" x1="260.4" y1="378.64" x2="1203" y2="378.64" xlink:href="#linear-gradient"/>
  </defs>
  <g>
    <path class="st3" d="M1395.56,720c0,373.1-302.46,675.56-675.56,675.56S44.44,1093.1,44.44,720,346.9,44.44,720,44.44s675.56,302.46,675.56,675.56Z"/>
    <path class="st4" d="M1342.53,721.48c0,342.99-278.05,621.04-621.04,621.04S100.44,1064.47,100.44,721.48,378.49,100.44,721.48,100.44s621.04,278.05,621.04,621.04Z"/>
  </g>
  <g>
    <g>
      <path class="st0" d="M260.4,942.76l472.53-419.75,470.06,420.07v223.31l-74.96-66.92c-53.45-47.72-106.88-95.47-160.3-143.21l-.19-.17c-76.75-68.59-156.06-139.47-234.57-209.48-94.36,83.87-189.88,168.71-282.31,250.81l-190.26,169v-223.66Z"/>
      <path d="M732.92,533.73l462.08,412.94v201.86l-61.63-55.02c-53.45-47.72-106.88-95.47-160.3-143.21-78.67-70.31-159.76-142.78-240.08-214.4-96.61,85.87-194.37,172.7-289.17,256.91l-175.41,155.81v-202.26l464.51-412.62M732.95,512.3l-10.66,9.47-464.51,412.62-5.37,4.77v245.06l26.63-23.65,175.41-155.81c86.44-76.78,184-163.43,278.53-247.45,76.97,68.64,154.42,137.86,229.44,204.9,52.53,46.95,106.85,95.49,160.31,143.22l61.63,55.02,26.66,23.8v-244.75l-5.34-4.77-462.08-412.94-10.63-9.5h0Z"/>
    </g>
    <g>
      <path class="st1" d="M260.4,710.55l472.53-419.75,470.06,420.07v223.31l-74.96-66.92c-53.45-47.72-106.88-95.47-160.3-143.21l-.16-.15c-76.75-68.6-156.07-139.48-234.6-209.5-97.55,86.7-196.43,174.53-283.85,252.18l-188.72,167.64v-223.66Z"/>
      <path d="M732.92,301.52l462.08,412.94v201.86l-61.63-55.02c-53.45-47.72-106.88-95.47-160.3-143.21-78.67-70.31-159.76-142.78-240.08-214.4-96.61,85.87-194.37,172.7-289.17,256.91l-175.41,155.81v-202.26l464.51-412.62M732.95,280.09l-10.66,9.47-464.51,412.62-5.37,4.77v245.06l26.63-23.65,175.41-155.81c90.88-80.72,184.73-164.08,278.53-247.45,76.9,68.58,154.39,137.83,229.44,204.9l.5.45c52.37,46.8,106.52,95.19,159.8,142.77l61.63,55.02,26.66,23.8v-244.75l-5.34-4.77-462.08-412.94-10.63-9.5h0Z"/>
    </g>
    <g>
      <path class="st2" d="M260.4,476.68L732.93,56.94l470.06,420.07v223.31l-74.96-66.92c-53.45-47.72-106.88-95.47-160.3-143.21-76.72-68.56-155.99-139.41-234.76-209.65-95.8,85.15-191.37,170.04-283.85,252.18l-188.72,167.64v-223.66Z"/>
      <path d="M732.92,67.65l462.08,412.94v201.86l-61.63-55.02c-53.45-47.72-106.88-95.47-160.3-143.21-78.67-70.31-159.76-142.78-240.08-214.4-96.61,85.87-194.37,172.7-289.17,256.91l-175.41,155.81v-202.26L732.92,67.65M732.95,46.22l-10.66,9.47-464.51,412.62-5.37,4.77v245.06l26.63-23.65,175.41-155.81c86.44-76.78,184-163.43,278.53-247.45,76.9,68.58,154.39,137.83,229.44,204.9,52.45,46.87,106.68,95.34,160.31,143.22l61.63,55.02,26.66,23.8v-244.75l-5.34-4.77L743.58,55.72l-10.63-9.5h0Z"/>
    </g>
  </g>
</svg>