<?xml version="1.0" encoding="UTF-8"?>
<svg id="Layer_1" xmlns="http://www.w3.org/2000/svg" xmlns:xlink="http://www.w3.org/1999/xlink" version="1.1" viewBox="0 0 2160 2160">
  <!-- Generator: Adobe Illustrator 30.0.0, SVG Export Plug-In . SVG Version: 2.1.1 Build 123)  -->
  <defs>
    <style>
      .st0 {
        fill: url(#linear-gradient2);
      }

      .st1 {
        fill: url(#linear-gradient3);
      }

      .st2 {
        fill: url(#linear-gradient6);
      }

      .st3 {
        fill: url(#linear-gradient7);
      }

      .st4 {
        fill: url(#linear-gradient5);
      }

      .st5 {
        fill: url(#linear-gradient4);
      }

      .st6 {
        fill: url(#linear-gradient12);
      }

      .st7 {
        fill: url(#linear-gradient11);
      }

      .st8 {
        fill: url(#linear-gradient10);
      }

      .st9 {
        stroke: url(#linear-gradient);
      }

      .st9, .st10 {
        stroke-width: 50px;
      }

      .st9, .st10, .st11, .st12 {
        fill: none;
      }

      .st10 {
        stroke: url(#linear-gradient8);
      }

      .st11 {
        stroke: url(#linear-gradient1);
      }

      .st11, .st12 {
        stroke-miterlimit: 3.68;
        stroke-width: 47px;
      }

      .st12 {
        stroke: url(#linear-gradient9);
      }
    </style>
    <linearGradient id="linear-gradient" x1="2730.76" y1="1109.78" x2="3926.96" y2="1109.78" gradientUnits="userSpaceOnUse">
      <stop offset=".06" stop-color="#ddb446"/>
      <stop offset=".22" stop-color="#ddb446"/>
      <stop offset=".53" stop-color="#fbf39e"/>
      <stop offset=".57" stop-color="#f7e785"/>
      <stop offset=".62" stop-color="#f4dd6e"/>
      <stop offset=".68" stop-color="#f2d55e"/>
      <stop offset=".74" stop-color="#f1d155"/>
      <stop offset=".83" stop-color="#f1d052"/>
    </linearGradient>
    <linearGradient id="linear-gradient1" x1="3032.31" y1="1422.65" x2="4216.47" y2="238.49" gradientTransform="translate(-1.78 1874.57) scale(.92 -.92)" gradientUnits="userSpaceOnUse">
      <stop offset="0" stop-color="#010101"/>
      <stop offset=".01" stop-color="#e2b245"/>
      <stop offset="1" stop-color="#faef92"/>
    </linearGradient>
    <linearGradient id="linear-gradient2" x1="2966.23" y1="1248.8" x2="3691.5" y2="1248.8" gradientUnits="userSpaceOnUse">
      <stop offset=".06" stop-color="#ddb446"/>
      <stop offset=".22" stop-color="#ddb446"/>
      <stop offset=".53" stop-color="#fbf39e"/>
      <stop offset=".57" stop-color="#f7e785"/>
      <stop offset=".62" stop-color="#f4dd6e"/>
      <stop offset=".68" stop-color="#f2d55e"/>
      <stop offset=".74" stop-color="#f1d155"/>
      <stop offset=".83" stop-color="#f1d052"/>
    </linearGradient>
    <linearGradient id="linear-gradient3" x1="3001.78" y1="1221.39" x2="3655.95" y2="1221.39" xlink:href="#linear-gradient2"/>
    <linearGradient id="linear-gradient4" y1="1046.44" y2="1046.44" xlink:href="#linear-gradient2"/>
    <linearGradient id="linear-gradient5" x1="3001.78" y1="1019.03" x2="3655.95" y2="1019.03" xlink:href="#linear-gradient2"/>
    <linearGradient id="linear-gradient6" y1="845.24" y2="845.24" xlink:href="#linear-gradient2"/>
    <linearGradient id="linear-gradient7" x1="3001.78" y1="817.83" x2="3655.95" y2="817.83" xlink:href="#linear-gradient2"/>
    <linearGradient id="linear-gradient8" x1="481.9" y1="1080" x2="1678.1" y2="1080" xlink:href="#linear-gradient2"/>
    <linearGradient id="linear-gradient9" x1="586.03" y1="1455.04" x2="1770.19" y2="270.88" xlink:href="#linear-gradient1"/>
    <linearGradient id="linear-gradient10" x1="678.97" y1="1186.34" x2="1481.03" y2="1186.34" xlink:href="#linear-gradient2"/>
    <linearGradient id="linear-gradient11" x1="678.97" y1="989.35" x2="1481.03" y2="989.35" xlink:href="#linear-gradient2"/>
    <linearGradient id="linear-gradient12" x1="678.97" y1="790.95" x2="1481.03" y2="790.95" xlink:href="#linear-gradient2"/>
  </defs>
  <rect x="2479.97" y="236.41" width="1680.02" height="1754.45" rx="559.44" ry="559.44"/>
  <g>
    <path class="st9" d="M3901.96,1109.78c0,316.51-256.59,573.1-573.1,573.1s-573.1-256.59-573.1-573.1,256.59-573.1,573.1-573.1,573.1,256.59,573.1,573.1Z"/>
    <path class="st11" d="M3856.97,1111.03c0,290.97-235.88,526.85-526.85,526.85s-526.85-235.88-526.85-526.85,235.88-526.85,526.85-526.85,526.85,235.88,526.85,526.85Z"/>
  </g>
  <g>
    <g>
      <path class="st0" d="M2966.23,1333.03l363.58-367.26,361.68,367.54v198.5l-60.88-61.8c-40.92-41.54-81.81-83.1-122.71-124.66l-1.43-1.46c-57.8-58.74-117.51-119.42-176.65-179.39-72.09,72.87-144.95,146.45-215.65,217.86l-147.95,149.44v-198.79Z"/>
      <path d="M3329.8,977.16l353.7,359.43v175.7l-47.18-47.89c-40.91-41.54-81.81-83.1-122.7-124.65-60.22-61.2-122.29-124.28-183.77-186.61-73.95,74.75-148.78,150.33-221.35,223.62l-134.27,135.62v-176.05l355.56-359.16M3329.83,954.38l-11.4,11.52-355.56,359.16-4.63,4.68v221.54l27.37-27.65,134.27-135.62c68.42-69.11,139.05-140.45,209.96-212.11,57.87,58.69,116.03,117.8,172.39,175.07,40.03,40.68,81.42,82.75,122.71,124.66l47.18,47.89,27.4,27.81v-221.3l-4.6-4.67-353.7-359.43-11.37-11.55h0Z"/>
    </g>
    <path class="st1" d="M3001.78,1338.15v97.73c109.37-110.48,218.76-220.93,328.09-331.45,108.81,110.26,217.37,220.77,326.08,331.13v-97.19l-326.21-331.49-327.96,331.27Z"/>
    <g>
      <path class="st5" d="M2966.23,1130.67l363.58-367.26,361.68,367.54v198.5l-60.88-61.8c-40.92-41.54-81.81-83.1-122.71-124.66l-.76-.77c-58.02-58.97-117.96-119.87-177.32-180.07-71.72,72.49-144.19,145.69-214.55,216.75l-149.06,150.56v-198.79Z"/>
      <path d="M3329.8,774.81l353.7,359.43v175.7l-47.18-47.89c-40.91-41.54-81.81-83.1-122.7-124.65-60.22-61.2-122.29-124.28-183.77-186.61-73.95,74.75-148.78,150.33-221.35,223.62l-134.27,135.62v-176.05l355.56-359.16M3329.83,752.03l-11.4,11.52-355.56,359.16-4.63,4.68v221.54l27.37-27.65,134.27-135.62c68.42-69.11,139.05-140.45,209.96-212.11,57.87,58.69,116.03,117.8,172.39,175.07,40.03,40.68,81.42,82.75,122.71,124.66l47.18,47.89,27.4,27.81v-221.3l-4.6-4.67-353.7-359.43-11.37-11.55h0Z"/>
    </g>
    <path class="st4" d="M3001.78,1135.8v97.73c109.37-110.48,218.76-220.93,328.09-331.45,108.81,110.26,217.37,220.77,326.08,331.13v-97.19l-326.21-331.49-327.96,331.27Z"/>
    <g>
      <path class="st2" d="M2966.23,929.47l363.58-367.26,361.68,367.54v198.5l-60.88-61.8c-40.92-41.54-81.81-83.1-122.71-124.66l-1.32-1.34c-57.84-58.78-117.59-119.5-176.76-179.5-71.56,72.33-143.88,145.37-214.09,216.28l-149.52,151.03v-198.79Z"/>
      <path d="M3329.8,573.6l353.7,359.43v175.7l-47.18-47.89c-40.91-41.54-81.81-83.1-122.7-124.65-60.22-61.2-122.29-124.28-183.77-186.61-73.95,74.75-148.78,150.33-221.35,223.62l-134.27,135.62v-176.05l355.56-359.16M3329.83,550.83l-11.4,11.52-355.56,359.16-4.63,4.68v221.54l27.37-27.65,134.27-135.62c65.17-65.82,138.6-139.99,209.96-212.11,57.83,58.65,116.01,117.77,172.39,175.07,40.09,40.74,81.54,82.87,122.71,124.66l47.18,47.89,27.4,27.81v-221.3l-4.6-4.67-353.7-359.43-11.37-11.55h0Z"/>
    </g>
    <path class="st3" d="M3001.78,934.6v97.73c109.37-110.48,218.76-220.93,328.09-331.45,108.81,110.26,217.37,220.77,326.08,331.13v-97.19l-326.21-331.49-327.96,331.27Z"/>
  </g>
  <g>
    <g>
      <path class="st10" d="M1653.1,1080c0,316.51-256.59,573.1-573.1,573.1s-573.1-256.59-573.1-573.1,256.59-573.1,573.1-573.1,573.1,256.59,573.1,573.1Z"/>
      <path class="st12" d="M1608.11,1081.26c0,290.97-235.88,526.85-526.85,526.85s-526.85-235.88-526.85-526.85,235.88-526.85,526.85-526.85,526.85,235.88,526.85,526.85Z"/>
    </g>
    <g>
      <g>
        <path class="st8" d="M678.97,1268.43l402.08-357.16,399.98,357.44v192.69l-65.61-58.58c-45.35-40.48-90.67-80.99-135.99-121.49l-.52-.46c-64.73-57.85-131.61-117.62-197.83-176.67-80.22,71.3-161.31,143.33-239.99,213.21l-162.12,144v-192.99Z"/>
        <path d="M1081.03,921.98l392,350.31v171.25l-52.28-46.68c-45.34-40.48-90.67-80.99-135.99-121.49-66.74-59.65-135.53-121.12-203.67-181.88-81.96,72.85-164.89,146.51-245.31,217.94l-148.8,132.18v-171.58l394.06-350.04M1081.07,900.55l-10.66,9.47-394.06,350.04-5.37,4.77v214.39l26.63-23.65,148.8-132.18c72.88-64.73,155.06-137.72,234.67-208.48,64.67,57.67,129.87,115.94,193.02,172.39l.35.31c44.45,39.72,90.41,80.8,135.65,121.18l52.28,46.68,26.66,23.8v-214.14l-5.34-4.77-392-350.31-10.63-9.5h0Z"/>
      </g>
      <g>
        <path class="st7" d="M678.97,1071.44l402.08-357.16,399.98,357.44v192.69l-65.61-58.58c-45.35-40.48-90.67-80.99-135.99-121.49-64.85-57.95-131.84-117.83-198.35-177.13-80.22,71.3-161.31,143.33-239.99,213.21l-162.12,144v-192.98Z"/>
        <path d="M1081.03,724.99l392,350.31v171.25l-52.28-46.68c-45.34-40.48-90.67-80.99-135.99-121.49-66.74-59.65-135.53-121.12-203.67-181.88-81.96,72.85-164.89,146.51-245.31,217.94l-148.8,132.18v-171.58l394.06-350.04M1081.07,703.56l-10.66,9.47-394.06,350.04-5.37,4.77v214.39l26.63-23.65,148.8-132.18c72.88-64.73,155.06-137.72,234.67-208.48,64.78,57.77,129.92,115.99,193.02,172.39l.35.31c44.45,39.72,90.41,80.8,135.65,121.18l52.28,46.68,26.66,23.8v-214.14l-5.34-4.77-392-350.31-10.63-9.5h0Z"/>
      </g>
      <g>
        <path class="st6" d="M678.97,873.04l402.08-357.16,399.98,357.44v192.69l-65.61-58.58c-44.85-40.04-89.67-80.1-134.49-120.15l-1.5-1.34c-64.85-57.95-131.84-117.83-198.35-177.13-80.22,71.3-161.31,143.33-239.99,213.21l-162.12,144v-192.99Z"/>
        <path d="M1081.03,526.59l392,350.31v171.25l-52.28-46.68c-45.34-40.48-90.67-80.99-135.99-121.49-66.74-59.65-135.53-121.12-203.67-181.88-81.96,72.85-164.89,146.51-245.31,217.94l-148.8,132.18v-171.58l394.06-350.04M1081.07,505.17l-10.66,9.47-394.06,350.04-5.37,4.77v214.39l26.63-23.65,148.8-132.18c72.88-64.73,155.06-137.72,234.67-208.48,64.72,57.72,129.89,115.97,193.02,172.39l1.21,1.08c44.17,39.47,89.84,80.29,134.78,120.41l52.28,46.68,26.66,23.8v-214.14l-5.34-4.77-392-350.31-10.63-9.5h0Z"/>
      </g>
    </g>
  </g>
</svg>