<?xml version="1.0" encoding="UTF-8"?>
<svg id="Layer_1" xmlns="http://www.w3.org/2000/svg" xmlns:xlink="http://www.w3.org/1999/xlink" version="1.1" viewBox="0 0 1440 1440">
  <!-- Generator: Adobe Illustrator 30.0.0, SVG Export Plug-In . SVG Version: 2.1.1 Build 123)  -->
  <defs>
    <style>
      .st0 {
        fill: url(#linear-gradient2);
      }

      .st1 {
        fill: url(#linear-gradient1);
      }

      .st2 {
        fill: url(#linear-gradient3);
      }

      .st3 {
        fill: none;
        stroke: url(#linear-gradient);
        stroke-width: 136px;
      }
    </style>
    <linearGradient id="linear-gradient" x1="45.88" y1="717.48" x2="1424.53" y2="717.48" gradientUnits="userSpaceOnUse">
      <stop offset=".06" stop-color="#e4b122"/>
      <stop offset=".22" stop-color="#e4b122"/>
      <stop offset=".53" stop-color="#fdf391"/>
      <stop offset=".55" stop-color="#fbeb7c"/>
      <stop offset=".6" stop-color="#fae05f"/>
      <stop offset=".64" stop-color="#f8d848"/>
      <stop offset=".7" stop-color="#f7d238"/>
      <stop offset=".75" stop-color="#f7cf2f"/>
      <stop offset=".83" stop-color="#f7ce2c"/>
    </linearGradient>
    <linearGradient id="linear-gradient1" x1="301.1" y1="863.63" x2="1169.31" y2="863.63" xlink:href="#linear-gradient"/>
    <linearGradient id="linear-gradient2" x1="301.1" y1="650.06" x2="1169.31" y2="650.06" xlink:href="#linear-gradient"/>
    <linearGradient id="linear-gradient3" x1="301.1" y1="434.97" x2="1169.31" y2="434.97" xlink:href="#linear-gradient"/>
  </defs>
  <path class="st3" d="M1356.53,717.48c0,343.15-278.18,621.33-621.33,621.33S113.88,1060.63,113.88,717.48,392.06,96.16,735.21,96.16s621.33,278.18,621.33,621.33Z"/>
  <g>
    <g>
      <path class="st1" d="M301.1,953.22l435.24-386.62,432.97,386.92v207.1l-70.01-62.5c-49.16-43.89-98.3-87.8-147.43-131.72-70.3-62.83-142.95-127.75-215.49-192.44-87.12,77.44-175.18,155.66-260.63,231.55l-174.64,155.13v-207.42Z"/>
      <path d="M736.33,577.32l424.98,379.79v185.66l-56.68-50.61c-49.16-43.89-98.3-87.8-147.43-131.71-72.36-64.67-146.94-131.32-220.81-197.18-88.85,78.98-178.77,158.84-265.95,236.28l-161.33,143.3v-186.02l427.22-379.5M736.36,555.89l-10.66,9.47-427.22,379.5-5.37,4.77v228.83l26.63-23.65,161.33-143.3c79.28-70.42,168.72-149.86,255.31-226.82,70.5,62.87,141.44,126.27,210.16,187.69l1.35,1.21c47.87,42.78,97.38,87.02,146.09,130.51l56.68,50.61,26.66,23.8v-228.55l-5.34-4.77-424.98-379.79-10.63-9.5h0Z"/>
    </g>
    <g>
      <path class="st0" d="M301.1,739.66l435.24-386.62,432.97,386.92v207.1l-70.01-62.5c-49.16-43.89-98.3-87.8-147.43-131.72-70.2-62.74-142.72-127.55-215.49-192.44-87.12,77.44-175.18,155.66-260.63,231.55l-174.64,155.13v-207.42Z"/>
      <path d="M736.33,363.76l424.98,379.79v185.66l-56.68-50.61c-49.16-43.89-98.3-87.8-147.43-131.71-72.36-64.67-146.94-131.32-220.81-197.18-88.85,78.98-178.77,158.84-265.95,236.28l-161.33,143.3v-186.02l427.22-379.5M736.36,342.33l-10.66,9.47-427.22,379.5-5.37,4.77v228.83l26.63-23.65,161.33-143.3c79.28-70.42,168.72-149.86,255.31-226.82,70.43,62.81,141.41,126.25,210.16,187.69l.42.38c48.18,43.06,97.99,87.58,147.02,131.34l56.68,50.61,26.66,23.8v-228.55l-5.34-4.77-424.98-379.79-10.63-9.5h0Z"/>
    </g>
    <g>
      <path class="st2" d="M301.1,524.57l435.24-386.62,432.97,386.92v207.1l-70.01-62.5c-49.16-43.89-98.3-87.8-147.43-131.72-70.42-62.93-143.18-127.96-215.49-192.44-87.12,77.44-175.18,155.65-260.63,231.55l-174.64,155.13v-207.42Z"/>
      <path d="M736.33,148.66l424.98,379.79v185.66l-56.68-50.61c-49.16-43.89-98.3-87.8-147.43-131.71-72.36-64.67-146.94-131.32-220.81-197.18-88.85,78.98-178.77,158.84-265.95,236.28l-161.33,143.3v-186.02l427.22-379.5M736.36,127.23l-10.66,9.47-427.22,379.5-5.37,4.77v228.83l26.63-23.65,161.33-143.3c79.28-70.42,168.72-149.86,255.31-226.82,70.55,62.92,141.47,126.3,210.16,187.69l.42.38c48.18,43.06,97.99,87.58,147.02,131.34l56.68,50.61,26.66,23.8v-228.55l-5.34-4.77-424.98-379.79-10.63-9.5h0Z"/>
    </g>
  </g>
</svg>