<?xml version="1.0" encoding="UTF-8"?>
<svg xmlns="http://www.w3.org/2000/svg" xmlns:xlink="http://www.w3.org/1999/xlink" version="1.1" viewBox="0 0 1440 1440">
  <!-- Generator: Adobe Illustrator 30.0.0, SVG Export Plug-In . SVG Version: 2.1.1 Build 123)  -->
  <defs>
    <style>
      .st0 {
        filter: url(#drop-shadow-1);
      }

      .st1 {
        fill: url(#linear-gradient9);
      }

      .st1, .st2, .st3 {
        mix-blend-mode: screen;
      }

      .st1, .st2, .st3, .st4, .st5, .st6 {
        opacity: .6;
      }

      .st2 {
        fill: url(#linear-gradient1);
      }

      .st3 {
        fill: url(#linear-gradient3);
      }

      .st7 {
        isolation: isolate;
      }

      .st8 {
        fill: #ffdf48;
      }

      .st9 {
        stroke: url(#linear-gradient);
        stroke-width: 136px;
      }

      .st10 {
        fill: url(#linear-gradient10);
        opacity: .7;
      }

      .st10, .st11, .st4, .st5, .st6, .st12, .st13 {
        mix-blend-mode: multiply;
      }

      .st11 {
        fill: url(#linear-gradient5);
        opacity: .5;
      }

      .st4 {
        fill: url(#linear-gradient6);
      }

      .st5 {
        fill: url(#linear-gradient7);
      }

      .st6 {
        fill: url(#linear-gradient2);
      }

      .st12 {
        fill: url(#linear-gradient8);
        opacity: .67;
      }

      .st13 {
        fill: url(#linear-gradient4);
        opacity: .8;
      }
    </style>
    <linearGradient id="linear-gradient" x1="3.9" y1="720" x2="1436.1" y2="720" gradientUnits="userSpaceOnUse">
      <stop offset=".06" stop-color="#e4b122"/>
      <stop offset=".22" stop-color="#e4b122"/>
      <stop offset=".53" stop-color="#fdf391"/>
      <stop offset=".55" stop-color="#fbeb7c"/>
      <stop offset=".6" stop-color="#fae05f"/>
      <stop offset=".64" stop-color="#f8d848"/>
      <stop offset=".7" stop-color="#f7d238"/>
      <stop offset=".75" stop-color="#f7cf2f"/>
      <stop offset=".83" stop-color="#f7ce2c"/>
    </linearGradient>
    <filter id="drop-shadow-1" x="11.96" y="-35.04" width="1429" height="1391" filterUnits="userSpaceOnUse">
      <feOffset dx="7" dy="7"/>
      <feGaussianBlur result="blur" stdDeviation="13.68"/>
      <feFlood flood-color="#000" flood-opacity=".81"/>
      <feComposite in2="blur" operator="in"/>
      <feComposite in="SourceGraphic"/>
    </filter>
    <linearGradient id="linear-gradient1" x1="899.15" y1="750.59" x2="1224.72" y2="358.71" gradientUnits="userSpaceOnUse">
      <stop offset="0" stop-color="#fff"/>
      <stop offset="1" stop-color="#573027"/>
    </linearGradient>
    <linearGradient id="linear-gradient2" x1="752.48" y1="350.63" x2="1200.88" y2="350.63" gradientUnits="userSpaceOnUse">
      <stop offset="0" stop-color="#fff"/>
      <stop offset=".25" stop-color="#cec8c7"/>
      <stop offset=".81" stop-color="#55423e"/>
      <stop offset="1" stop-color="#2c1410"/>
    </linearGradient>
    <linearGradient id="linear-gradient3" x1="851.09" y1="735.26" x2="1087.14" y2="1129.67" xlink:href="#linear-gradient1"/>
    <linearGradient id="linear-gradient4" x1="1064.14" y1="1367.44" x2="710.39" y2="853.5" gradientUnits="userSpaceOnUse">
      <stop offset="0" stop-color="#481f05"/>
      <stop offset="1" stop-color="#ae857b"/>
    </linearGradient>
    <linearGradient id="linear-gradient5" x1="460.61" y1="1255.11" x2="769.27" y2="762.97" xlink:href="#linear-gradient4"/>
    <linearGradient id="linear-gradient6" x1="834.67" y1="759.91" x2="1650.29" y2="469.91" xlink:href="#linear-gradient2"/>
    <linearGradient id="linear-gradient7" x1="571.42" y1="787.92" x2="153.02" y2="1349.37" xlink:href="#linear-gradient2"/>
    <linearGradient id="linear-gradient8" x1="561.81" y1="350.83" x2="751.54" y2="350.83" gradientUnits="userSpaceOnUse">
      <stop offset="0" stop-color="#dfcac4"/>
      <stop offset=".99" stop-color="#977168"/>
    </linearGradient>
    <linearGradient id="linear-gradient9" x1="621.89" y1="712.28" x2="152.05" y2="352.37" xlink:href="#linear-gradient1"/>
    <linearGradient id="linear-gradient10" x1="46.94" y1="636.03" x2="718.08" y2="636.03" xlink:href="#linear-gradient4"/>
  </defs>
  <g class="st7">
    <g id="Layer_1">
      <path class="st9" d="M1368.1,720c0,357.94-290.16,648.1-648.1,648.1S71.9,1077.94,71.9,720,362.06,71.9,720,71.9s648.1,290.16,648.1,648.1Z"/>
      <g class="st0">
        <polygon class="st8" points="436.85 799.21 46.94 472.75 552.06 458.44 719.66 -.54 887.26 458.44 1392.38 472.75 1002.47 799.21 1128.83 1307.32 719.66 1029.24 310.49 1307.32 436.85 799.21"/>
        <g>
          <polygon class="st2" points="1384.73 472.53 887.29 458.44 722.61 700.79 1384.73 472.53"/>
          <polygon class="st6" points="722.61 700.79 887.29 458.44 887.26 458.44 719.66 -.54 719.66 701.81 722.61 700.79"/>
          <polygon class="st3" points="721.06 703.07 719.82 704.9 1128.71 1307.24 1128.83 1307.32 1002.47 799.21 721.06 703.07"/>
          <polygon class="st13" points="719.66 705.14 719.66 1029.25 1128.71 1307.24 719.82 704.91 719.66 705.14"/>
          <polygon class="st11" points="310.51 1307.25 310.49 1307.32 719.66 1029.24 719.66 705.13 310.51 1307.25"/>
          <polygon class="st4" points="721.06 703.07 1002.47 799.21 1392.38 472.75 1384.73 472.53 722.61 700.79 721.06 703.07"/>
          <polygon class="st5" points="719.66 704.68 718.08 702.35 436.83 799.31 310.51 1307.25 719.66 705.13 719.66 704.68"/>
          <polygon class="st12" points="718.52 702.2 719.66 701.81 719.66 -.54 552.22 458.02 717.82 701.96 718.52 702.2"/>
          <polygon class="st1" points="552.22 458.02 552.06 458.44 46.94 472.75 46.94 472.75 717.82 701.96 552.22 458.02"/>
          <polygon class="st10" points="717.82 701.96 46.94 472.75 436.85 799.21 436.83 799.31 718.08 702.35 717.82 701.96"/>
        </g>
      </g>
    </g>
  </g>
</svg>