<?xml version="1.0" encoding="UTF-8"?>
<svg id="Layer_1" xmlns="http://www.w3.org/2000/svg" version="1.1" viewBox="0 0 1440 1440">
  <!-- Generator: Adobe Illustrator 30.0.0, SVG Export Plug-In . SVG Version: 2.1.1 Build 123)  -->
  <defs>
    <style>
      .st0 {
        fill: #d3af37;
      }

      .st1 {
        fill: #324d3f;
        stroke: #d3af37;
        stroke-width: 136px;
      }
    </style>
  </defs>
  <path class="st1" d="M1368.1,720c0,357.94-290.16,648.1-648.1,648.1S71.9,1077.94,71.9,720,362.06,71.9,720,71.9s648.1,290.16,648.1,648.1Z"/>
  <g id="E-6_Sergeant">
    <g id="E-6_Stripes">
      <path id="E-6_Strip3" class="st0" d="M721.79,713.82c-.6-.65-1.18-1.29-1.79-1.94-.59.65-1.19,1.29-1.77,1.94-118.28,126.75-256.9,227.67-409.01,299.68v112.34c11.31-4.9,22.53-9.92,33.68-15.1,84.73-39.34,166.1-87.24,241.85-142.32,47.17-34.28,92.41-71.57,135.25-111.39,42.84,39.82,88.09,77.1,135.25,111.39,75.75,55.09,157.13,102.99,241.84,142.32,11.17,5.17,22.4,10.2,33.68,15.1v-112.34c-152.11-72.02-290.72-172.94-408.99-299.68Z"/>
      <path id="E-6_Strip2" class="st0" d="M836.98,598.63c-42.54-45.61-81.58-93.59-116.97-143.66-35.39,50.07-74.41,98.04-116.97,143.66-87.68,93.95-186.55,173.74-293.81,238.05v117.82c55.55-30.2,109.23-64.08,160.35-101.25,75-54.55,145.18-116.65,208.55-184.56,14.29-15.33,28.25-30.98,41.88-46.94,13.63,15.96,27.61,31.61,41.9,46.94,63.36,67.91,133.53,130.01,208.55,184.56,51.11,37.18,104.8,71.05,160.33,101.25v-117.82c-107.24-64.31-206.11-144.1-293.8-238.05Z"/>
      <path id="E-6_Strip1" class="st0" d="M952.18,483.43c-95.6-102.44-173.46-217-232.18-339.89-58.73,122.9-136.57,237.45-232.17,339.89-55.3,59.28-115.1,112.9-178.61,160.57v125.56c15.26-10.21,30.32-20.71,45.15-31.49,75.02-54.56,145.19-116.65,208.56-184.58,58.03-62.2,110.78-129.75,157.07-201.06,46.29,71.31,99.05,138.86,157.08,201.06,63.37,67.93,133.54,130.02,208.55,184.58,14.85,10.78,29.91,21.28,45.14,31.49v-125.56c-63.51-47.67-123.29-101.29-178.6-160.57Z"/>
    </g>
  </g>
</svg>