<?xml version="1.0" encoding="UTF-8"?>
<svg id="Layer_1" xmlns="http://www.w3.org/2000/svg" version="1.1" viewBox="0 0 1440 1440">
  <!-- Generator: Adobe Illustrator 30.0.0, SVG Export Plug-In . SVG Version: 2.1.1 Build 123)  -->
  <defs>
    <style>
      .st0 {
        stroke: #d3af37;
        stroke-width: 136px;
      }

      .st0, .st1 {
        fill: #004e76;
      }

      .st2 {
        fill: #d3af37;
      }
    </style>
  </defs>
  <path class="st0" d="M1368.1,717.61c0,357.94-290.16,648.1-648.1,648.1S71.9,1075.55,71.9,717.61,362.06,69.51,720,69.51s648.1,290.16,648.1,648.1Z"/>
  <g>
    <g>
      <path class="st2" d="M670.24,1002.62V341.7c0-58.89,15.2-109.54,27.95-141.67,13.82-34.83,27.87-56.05,28.01-56.26l1.66-2.5,1.66,2.5c.14.21,14.18,21.44,28.01,56.26,12.75,32.12,27.95,82.78,27.95,141.67v660.92h-115.25Z"/>
      <path class="st1" d="M727.86,144.88s55.62,83.44,55.62,196.82v658.92h-111.25V341.7c0-113.39,55.62-196.82,55.62-196.82M727.86,137.67l-3.33,4.99c-.58.87-14.3,21.61-28.2,56.63-12.82,32.29-28.09,83.2-28.09,142.41v662.92h119.25V341.7c0-59.2-15.28-110.12-28.09-142.41-13.9-35.02-27.62-55.77-28.2-56.63l-3.33-4.99h0Z"/>
    </g>
    <g>
      <path class="st2" d="M728.25,1294.66c-23.66,0-41.14-7.64-51.97-22.7-9.82-13.66-10.32-28.25-10.32-31.03,0-16.55,3.08-30.05,6.34-44.33,4.05-17.72,8.63-37.81,8.63-68.67,0-36.15-10.27-66.08-14.69-77.27l-1.08-2.73h126.16l-1.08,2.73c-4.42,11.19-14.69,41.11-14.69,77.27,0,30.85,4.59,50.94,8.63,68.67,3.26,14.29,6.34,27.78,6.34,44.33,0,2.79-.5,17.37-10.32,31.03-10.83,15.06-28.31,22.7-51.97,22.7Z"/>
      <path class="st1" d="M788.39,1049.92c-4.66,11.8-14.83,41.71-14.83,78,0,56.16,14.97,76.43,14.97,113,0,10.67-6.42,51.73-60.29,51.73s-60.29-41.06-60.29-51.73c0-36.56,14.97-56.84,14.97-113,0-36.29-10.17-66.2-14.83-78h120.28M794.27,1045.92h-132.04l2.16,5.47c4.37,11.08,14.55,40.73,14.55,76.53,0,30.63-4.56,50.6-8.58,68.22-3.29,14.4-6.39,28-6.39,44.78,0,2.89.52,18.04,10.69,32.2,7.72,10.73,23.28,23.53,53.59,23.53s45.87-12.8,53.59-23.53c10.18-14.16,10.7-29.31,10.7-32.2,0-16.78-3.1-30.38-6.39-44.78-4.02-17.62-8.58-37.59-8.58-68.22,0-35.81,10.17-65.45,14.55-76.53l2.16-5.47h0Z"/>
    </g>
    <g>
      <polygon class="st2" points="871.26 495.06 879.13 548.79 732.72 429 732.72 490.6 554.08 294.1 562.37 283.12 679.48 341.13 671.38 296.6 797.19 401.65 797.19 359.41 1001.46 540.98 993.84 552.55 871.26 495.06"/>
      <path class="st1" d="M559.26,289.39l129.6,64.2-7.13-39.24,122.46,102.25v-41.61l192.62,171.21-134.36-63.02,7.13,48.75-143.87-117.71v58.26l-166.46-183.1M565.48,276.84l-16.57,21.96,166.46,183.1,24.36,26.79v-64.93l121,99,27.95,22.87-5.23-35.73-3.36-22.99,110.79,51.96,15.25-23.14-192.62-171.21-23.3-20.71v42.86l-99.49-83.07-29.66-24.76,6.91,38.02,2.15,11.81-104.62-51.83h0Z"/>
    </g>
    <g>
      <polygon class="st2" points="886.38 718.3 894.19 782.11 713.37 624.04 718.25 714.27 470.96 456.94 479.21 445.87 632.63 524.8 630.1 458.88 804.01 608.8 807.59 551.47 1083.47 796.42 1075.83 807.98 886.38 718.3"/>
      <path class="st1" d="M476.01,452.09l164.08,84.42-2.38-61.83,172.4,148.62,3.57-57.07,265.14,235.42-200.94-95.12,7.13,58.26-179.54-156.95,4.76,87.99-234.23-243.74M482.41,439.64l-16.5,22.15,234.23,243.74,26.11,27.17-2.03-37.62-2.96-54.85,154.55,135.11,27.56,24.09-4.45-36.33-4.04-33.03,177.96,84.24,15.29-23.12-265.14-235.42-21.48-19.07-1.79,28.66-1.81,28.93-151.05-130.21-24.37-21.01,1.24,32.15,1.46,37.87-142.76-73.45h0Z"/>
    </g>
    <g>
      <polygon class="st2" points="839.86 931.07 847.57 999.11 639.13 825.41 641.56 929 397.26 675.92 405.44 664.8 565.16 745.22 563.92 652.06 756.17 817.35 745.46 750.71 1046.54 1010.56 1039.05 1022.23 839.86 931.07"/>
      <path class="st1" d="M571.13,667.49l194.99,167.65-10.7-66.59,286.55,247.31-210.45-96.31,7.13,63.02-206.88-172.4,2.38,101.06-231.85-240.18,170.03,85.61-1.19-89.17M556.72,636.63l.41,31.04.88,66.11-149.42-75.24-16.37,22.23,231.85,240.18,24.91,25.81-.84-35.86-1.65-70.24,183.2,152.66,26.8,22.33-3.92-34.66-4.35-38.4,187.93,86,14.97-23.33-286.55-247.31-29.06-25.08,6.09,37.9,4.63,28.8-165.97-142.7-23.54-20.24h0Z"/>
    </g>
    <g>
      <path class="st2" d="M617,1056.85c-17.43,0-31.6-14.18-31.6-31.61s14.18-31.6,31.6-31.6h222.49c17.43,0,31.6,14.18,31.6,31.6s-14.18,31.61-31.6,31.61h-222.49Z"/>
      <path class="st1" d="M839.49,1000.64c13.59,0,24.6,11.02,24.6,24.6s-11.01,24.61-24.6,24.61h-222.49c-13.59,0-24.6-11.02-24.6-24.61s11.01-24.6,24.6-24.6h222.49M839.49,986.64h-222.49c-21.29,0-38.6,17.32-38.6,38.6s17.32,38.61,38.6,38.61h222.49c21.29,0,38.6-17.32,38.6-38.61s-17.32-38.6-38.6-38.6h0Z"/>
    </g>
  </g>
</svg>